<?xml version="1.0" encoding="UTF-8"?><svg xmlns="http://www.w3.org/2000/svg" viewBox="0 0 260.04 260.11"><g id="a"/><g id="b"><g id="c"><g><path d="M186.98,130.24c-.07,31.22-25.89,56.87-57.15,56.8-31.21-.08-56.85-25.9-56.78-57.17,.07-31.23,25.88-56.87,57.15-56.79,31.22,.07,56.85,25.88,56.78,57.16Zm-56.82,40.51c22.35-.14,40.8-18.78,40.53-40.96-.26-22.23-18.41-40.32-40.57-40.42-22.23-.11-40.81,18.43-40.8,40.71,.02,22.28,18.62,40.82,40.83,40.67Z"/><path d="M83.3,85.61c-1.11,.93-2.4,1.54-4.09,1.61-2.24,.09-4.39-.89-5.98-2.47-6.58-6.54-13.13-13.11-19.7-19.68-4.94-4.94-9.93-9.82-14.79-14.83-3.8-3.92-4.02-8.59-.76-11.97,3.38-3.51,8.31-3.39,12.33,.58,11.34,11.22,22.65,22.48,33.82,33.87,.16,.16,.32,.34,.46,.52,3.03,3.7,2.38,9.3-1.3,12.36Z"/><path d="M220.7,37.43c3.54,3.09,3.99,8.61,1.02,12.26-.15,.19-.32,.37-.49,.55-11.17,11.4-22.48,22.67-33.82,33.9-3.99,3.95-8.99,4.05-12.33,.53-3.2-3.37-2.99-8.12,.82-11.97,11.23-11.34,22.57-22.57,33.81-33.9,2.91-2.94,6.44-4.1,9.9-2.13,.38,.22,.74,.48,1.07,.77Z"/><path d="M49.02,222.23c-3.42,2.33-8.09,2.03-11.04-.87-.64-.63-1.12-1.29-1.33-2.03-.75-2.67,.1-6.8,1.87-8.96,4.51-5.5,9.93-10.25,14.99-15.31,6.23-6.23,12.43-12.49,18.7-18.68,4.3-4.24,9.22-4.57,12.69-.99,3.34,3.45,3.02,8.24-1.04,12.33-11.13,11.2-22.27,22.39-33.55,33.45-.39,.39-.83,.73-1.3,1.05Z"/><path d="M222.68,220.63c-3.16,3.62-8.81,4.02-12.51,.95-.19-.16-.38-.32-.55-.5-11.27-11.07-22.41-22.26-33.53-33.47-4.02-4.05-4.24-8.92-.8-12.33,3.42-3.39,8.27-3.13,12.33,.9,11.33,11.24,22.58,22.56,33.89,33.82,2.79,2.78,3.86,6.28,1.99,9.5-.23,.4-.51,.77-.81,1.12Z"/><path d="M121.96,33c0-7.98-.05-15.97,.02-23.95,.05-5.5,3.1-8.92,7.83-9.05,4.95-.13,8.23,3.38,8.25,9.13,.06,15.97,.06,31.93,0,47.9-.02,5.55-3.04,8.89-7.83,9.01-5.01,.12-8.2-3.31-8.25-9.08-.07-7.98-.02-15.97-.02-23.95Z"/><path d="M32.97,138.12c-7.98,0-15.96,.06-23.94-.02-5.5-.05-8.91-3.11-9.03-7.85-.12-4.93,3.41-8.21,9.14-8.23,15.96-.06,31.92-.06,47.89,0,5.54,.02,8.88,3.05,8.98,7.85,.11,5.01-3.32,8.19-9.1,8.24-7.98,.07-15.96,.02-23.94,.02Z"/><path d="M227.02,121.99c7.98,0,15.96-.05,23.94,.02,5.51,.05,8.93,3.08,9.07,7.81,.14,4.92-3.4,8.26-9.1,8.28-15.96,.06-31.92,.06-47.89,0-5.57-.02-8.9-3.02-9.03-7.81-.14-5,3.3-8.23,9.06-8.28,7.98-.07,15.96-.02,23.94-.02Z"/><path d="M138.08,227.21c0,7.82,.04,15.63-.01,23.45-.04,5.89-3.03,9.38-7.94,9.45-4.92,.07-8.13-3.46-8.15-9.23-.05-15.8-.05-31.6,0-47.4,.02-5.93,2.97-9.34,7.94-9.41,5.15-.07,8.13,3.43,8.16,9.69,.04,7.82,0,15.63,0,23.45Z"/></g></g></g></svg>